<svg xmlns="http://www.w3.org/2000/svg" viewBox="0 0 100 100">
  <!-- Wise Owl - Purple -->
  <circle cx="50" cy="50" r="48" fill="#7E57C2"/>
  <circle cx="50" cy="50" r="44" fill="#9575CD"/>
  <!-- Ear tufts -->
  <polygon points="24,18 32,6 36,24" fill="#5E35B1"/>
  <polygon points="76,18 68,6 64,24" fill="#5E35B1"/>
  <!-- Eye circles -->
  <circle cx="36" cy="44" r="12" fill="#EDE7F6"/>
  <circle cx="64" cy="44" r="12" fill="#EDE7F6"/>
  <circle cx="36" cy="44" r="7" fill="#FF8F00"/>
  <circle cx="64" cy="44" r="7" fill="#FF8F00"/>
  <circle cx="36" cy="44" r="4" fill="#1A1A1A"/>
  <circle cx="64" cy="44" r="4" fill="#1A1A1A"/>
  <circle cx="37" cy="42" r="2" fill="white"/>
  <circle cx="65" cy="42" r="2" fill="white"/>
  <!-- Beak -->
  <polygon points="50,52 44,60 56,60" fill="#FFB300"/>
  <!-- Belly -->
  <ellipse cx="50" cy="74" rx="16" ry="12" fill="#EDE7F6"/>
  <!-- Belly pattern -->
  <path d="M42 68 Q50 72 58 68" fill="none" stroke="#D1C4E9" stroke-width="1.5"/>
  <path d="M44 74 Q50 78 56 74" fill="none" stroke="#D1C4E9" stroke-width="1.5"/>
</svg>
