<svg xmlns="http://www.w3.org/2000/svg" viewBox="0 0 100 100">
  <!-- Playful Fox - Orange -->
  <circle cx="50" cy="54" r="44" fill="#E65100"/>
  <!-- Ears -->
  <polygon points="20,30 30,5 42,36" fill="#E65100"/>
  <polygon points="80,30 70,5 58,36" fill="#E65100"/>
  <polygon points="24,28 32,10 38,34" fill="#FFF3E0"/>
  <polygon points="76,28 68,10 62,34" fill="#FFF3E0"/>
  <!-- Face -->
  <circle cx="50" cy="54" r="40" fill="#FF8F00"/>
  <!-- White face patch -->
  <ellipse cx="50" cy="64" rx="24" ry="22" fill="#FFF8E1"/>
  <!-- Eyes -->
  <ellipse cx="36" cy="48" rx="5" ry="5.5" fill="white"/>
  <ellipse cx="64" cy="48" rx="5" ry="5.5" fill="white"/>
  <circle cx="37" cy="49" r="3.5" fill="#33691E"/>
  <circle cx="65" cy="49" r="3.5" fill="#33691E"/>
  <circle cx="38" cy="47.5" r="1.2" fill="white"/>
  <circle cx="66" cy="47.5" r="1.2" fill="white"/>
  <!-- Nose -->
  <ellipse cx="50" cy="58" rx="4" ry="3" fill="#3E2723"/>
  <!-- Mouth -->
  <path d="M43 64 Q50 70 57 64" fill="none" stroke="#3E2723" stroke-width="1.5" stroke-linecap="round"/>
  <!-- Whiskers -->
  <line x1="28" y1="56" x2="16" y2="53" stroke="#5D4037" stroke-width="0.8"/>
  <line x1="28" y1="60" x2="16" y2="60" stroke="#5D4037" stroke-width="0.8"/>
  <line x1="72" y1="56" x2="84" y2="53" stroke="#5D4037" stroke-width="0.8"/>
  <line x1="72" y1="60" x2="84" y2="60" stroke="#5D4037" stroke-width="0.8"/>
</svg>
