<svg xmlns="http://www.w3.org/2000/svg" viewBox="0 0 100 100">
  <!-- Friendly Robot - Blue -->
  <rect x="8" y="14" width="84" height="78" rx="16" fill="#1565C0"/>
  <!-- Face plate -->
  <rect x="14" y="20" width="72" height="66" rx="12" fill="#42A5F5"/>
  <!-- Antenna -->
  <line x1="50" y1="14" x2="50" y2="4" stroke="#90CAF9" stroke-width="3"/>
  <circle cx="50" cy="3" r="4" fill="#FF5252"/>
  <!-- Eyes -->
  <rect x="26" y="36" width="18" height="14" rx="4" fill="#E3F2FD"/>
  <rect x="56" y="36" width="18" height="14" rx="4" fill="#E3F2FD"/>
  <circle cx="35" cy="43" r="4" fill="#0D47A1"/>
  <circle cx="65" cy="43" r="4" fill="#0D47A1"/>
  <circle cx="36.5" cy="41.5" r="1.5" fill="white"/>
  <circle cx="66.5" cy="41.5" r="1.5" fill="white"/>
  <!-- Nose -->
  <rect x="47" y="52" width="6" height="4" rx="2" fill="#1565C0"/>
  <!-- Mouth -->
  <rect x="30" y="62" width="40" height="8" rx="4" fill="#E3F2FD"/>
  <line x1="38" y1="62" x2="38" y2="70" stroke="#90CAF9" stroke-width="1"/>
  <line x1="46" y1="62" x2="46" y2="70" stroke="#90CAF9" stroke-width="1"/>
  <line x1="54" y1="62" x2="54" y2="70" stroke="#90CAF9" stroke-width="1"/>
  <line x1="62" y1="62" x2="62" y2="70" stroke="#90CAF9" stroke-width="1"/>
  <!-- Cheek lights -->
  <circle cx="20" cy="55" r="4" fill="#64FFDA" opacity="0.6"/>
  <circle cx="80" cy="55" r="4" fill="#64FFDA" opacity="0.6"/>
  <!-- Bolts -->
  <circle cx="14" cy="30" r="3" fill="#90CAF9"/>
  <circle cx="86" cy="30" r="3" fill="#90CAF9"/>
</svg>
