<svg xmlns="http://www.w3.org/2000/svg" viewBox="0 0 100 100">
  <!-- Magic Unicorn - Purple/Pink -->
  <circle cx="50" cy="56" r="44" fill="#7B1FA2"/>
  <!-- Horn -->
  <polygon points="50,2 44,28 56,28" fill="#FFD54F"/>
  <line x1="47" y1="10" x2="53" y2="16" stroke="#FFF176" stroke-width="1"/>
  <line x1="47" y1="16" x2="53" y2="22" stroke="#FFF176" stroke-width="1"/>
  <!-- Face -->
  <circle cx="50" cy="56" r="38" fill="#CE93D8"/>
  <!-- Ears -->
  <polygon points="22,34 28,12 38,38" fill="#CE93D8"/>
  <polygon points="78,34 72,12 62,38" fill="#CE93D8"/>
  <polygon points="26,32 30,18 36,36" fill="#F3E5F5"/>
  <polygon points="74,32 70,18 64,36" fill="#F3E5F5"/>
  <!-- Eyes - big sparkly -->
  <circle cx="36" cy="50" r="7" fill="white"/>
  <circle cx="64" cy="50" r="7" fill="white"/>
  <circle cx="37" cy="51" r="5" fill="#4A148C"/>
  <circle cx="65" cy="51" r="5" fill="#4A148C"/>
  <circle cx="38.5" cy="48.5" r="2" fill="white"/>
  <circle cx="66.5" cy="48.5" r="2" fill="white"/>
  <circle cx="35.5" cy="52" r="1" fill="white"/>
  <circle cx="63.5" cy="52" r="1" fill="white"/>
  <!-- Nose -->
  <circle cx="46" cy="60" r="1.5" fill="#7B1FA2"/>
  <circle cx="54" cy="60" r="1.5" fill="#7B1FA2"/>
  <!-- Smile -->
  <path d="M42 66 Q50 72 58 66" fill="none" stroke="#6A1B9A" stroke-width="1.5" stroke-linecap="round"/>
  <!-- Cheeks -->
  <circle cx="26" cy="60" r="5" fill="#F48FB1" opacity="0.4"/>
  <circle cx="74" cy="60" r="5" fill="#F48FB1" opacity="0.4"/>
  <!-- Mane highlight -->
  <path d="M20 44 Q14 50 18 58" stroke="#E040FB" stroke-width="2.5" fill="none" stroke-linecap="round"/>
  <path d="M80 44 Q86 50 82 58" stroke="#E040FB" stroke-width="2.5" fill="none" stroke-linecap="round"/>
</svg>
