<svg xmlns="http://www.w3.org/2000/svg" viewBox="0 0 100 100">
  <!-- Happy Bunny - Pink -->
  <circle cx="50" cy="54" r="44" fill="#F48FB1"/>
  <!-- Ears -->
  <ellipse cx="36" cy="16" rx="10" ry="24" fill="#F48FB1"/>
  <ellipse cx="64" cy="16" rx="10" ry="24" fill="#F48FB1"/>
  <ellipse cx="36" cy="16" rx="6" ry="18" fill="#FCE4EC"/>
  <ellipse cx="64" cy="16" rx="6" ry="18" fill="#FCE4EC"/>
  <!-- Face -->
  <circle cx="50" cy="54" r="40" fill="#F8BBD0"/>
  <!-- Eyes -->
  <circle cx="36" cy="48" r="6" fill="white"/>
  <circle cx="64" cy="48" r="6" fill="white"/>
  <circle cx="37" cy="49" r="4" fill="#880E4F"/>
  <circle cx="65" cy="49" r="4" fill="#880E4F"/>
  <circle cx="38" cy="47" r="1.5" fill="white"/>
  <circle cx="66" cy="47" r="1.5" fill="white"/>
  <!-- Nose -->
  <ellipse cx="50" cy="58" rx="3" ry="2.5" fill="#EC407A"/>
  <!-- Mouth -->
  <path d="M46 63 Q50 68 54 63" fill="none" stroke="#880E4F" stroke-width="1.5" stroke-linecap="round"/>
  <!-- Cheeks -->
  <circle cx="28" cy="58" r="5" fill="#FF80AB" opacity="0.4"/>
  <circle cx="72" cy="58" r="5" fill="#FF80AB" opacity="0.4"/>
  <!-- Teeth -->
  <rect x="47" y="63" width="3" height="4" rx="1" fill="white"/>
  <rect x="51" y="63" width="3" height="4" rx="1" fill="white"/>
</svg>
